<svg width="65" height="65" viewBox="0 0 65 65" fill="none" xmlns="http://www.w3.org/2000/svg">
<path d="M60.5965 32.5C60.5965 29.995 60.2818 27.5173 59.66 25.1162L63.2758 22.4171L56.2578 10.083L52.1401 11.9137C48.6195 8.36685 44.3086 5.83934 39.5426 4.52753L39.0469 0H32.029L29.36 32.5L32.029 65H39.0469L39.5426 60.4725C44.3088 59.1607 48.6197 56.6332 52.1401 53.0863L56.2578 54.917L63.2758 42.5829L59.66 39.8838C60.282 37.4827 60.5965 35.005 60.5965 32.5Z" fill="#BDBDBD"/>
<path d="M25.0112 0L24.5155 4.5274C19.7493 5.83921 15.4384 8.36672 11.9179 11.9135L7.8002 10.0829L0.782104 22.417L4.39788 25.116C3.77594 27.5172 3.4614 29.995 3.4614 32.4999C3.4614 35.0048 3.77606 37.4825 4.39788 39.8837L0.782104 42.5827L7.80008 54.9169L11.9178 53.0862C15.4384 56.633 19.7493 59.1605 24.5153 60.4723L25.0112 65H32.029V0H25.0112Z" fill="#E0E0E0"/>
<path d="M32.029 10.8333L29.182 32.5L32.029 54.1667C43.8218 54.1667 53.3817 44.4662 53.3817 32.5C53.3817 20.5338 43.8218 10.8333 32.029 10.8333Z" fill="#EEEEEE"/>
<path d="M10.6763 32.5C10.6763 44.4662 20.2362 54.1667 32.029 54.1667V10.8333C20.2362 10.8333 10.6763 20.5338 10.6763 32.5Z" fill="white"/>
<path d="M22.0413 39.5524L15.0327 32.5875L21.8965 25.4757L24.5782 28.1405L20.3405 32.5313L24.6676 36.8314L22.0413 39.5524Z" fill="#757575"/>
<path d="M42.0166 39.5525L39.3904 36.8314L43.7175 32.5313L39.4797 28.1405L42.1614 25.4757L49.0253 32.5875L42.0166 39.5525Z" fill="#757575"/>
<path d="M36.5345 20.0277L32.8615 19.243L32.0289 23.256L30.6943 36.5624L32.0289 41.7438L36.5345 20.0277Z" fill="#BDBDBD"/>
<path d="M31.1964 45.7568L32.029 41.7439V23.256L27.5234 44.9723L31.1964 45.7568Z" fill="#BDBDBD"/>
</svg>
