<svg width="65" height="65" viewBox="0 0 65 65" fill="none" xmlns="http://www.w3.org/2000/svg">
<path d="M49.0444 61.9531H15.0136C13.4209 61.9531 11.8934 61.3111 10.7671 60.1683C9.64089 59.0255 9.00818 57.4755 9.00818 55.8594V9.14062C9.00818 7.52446 9.64089 5.97449 10.7671 4.83169C11.8934 3.68889 13.4209 3.04688 15.0136 3.04688H43.039L55.0498 15.2344V55.8594C55.0498 57.4755 54.4171 59.0255 53.2909 60.1683C52.1647 61.3111 50.6371 61.9531 49.0444 61.9531Z" fill="#EEEEEE"/>
<path d="M9.00818 45.7031H55.0498V55.8594C55.0498 57.4755 54.4171 59.0255 53.2909 60.1683C52.1647 61.3111 50.6371 61.9531 49.0444 61.9531H15.0136C13.4209 61.9531 11.8934 61.3111 10.7671 60.1683C9.64089 59.0255 9.00818 57.4755 9.00818 55.8594V45.7031Z" fill="#757575"/>
<path d="M55.0498 15.2344H49.0444C47.4516 15.2344 45.9241 14.5924 44.7979 13.4496C43.6717 12.3068 43.0389 10.7568 43.0389 9.14062V3.04688L55.0498 15.2344Z" fill="#BDBDBD"/>
<path d="M22.0199 17.2656H30.0271V25.3906H22.0199V17.2656Z" fill="#757575"/>
<path d="M34.0308 17.2656H42.038V25.3906H34.0308V17.2656Z" fill="#BDBDBD"/>
<path d="M22.0199 29.4531H30.0271V37.5781H22.0199V29.4531Z" fill="#BDBDBD"/>
<path d="M34.0308 29.4531H42.038V37.5781H34.0308V29.4531Z" fill="#757575"/>
<path d="M41.0371 48.7499H39.0353C38.7699 48.7499 38.5153 48.8569 38.3276 49.0474C38.1399 49.2379 38.0344 49.4962 38.0344 49.7656V57.8906C38.0344 58.1599 38.1399 58.4183 38.3276 58.6087C38.5153 58.7992 38.7699 58.9062 39.0353 58.9062C39.3008 58.9062 39.5554 58.7992 39.7431 58.6087C39.9308 58.4183 40.0362 58.1599 40.0362 57.8906V54.8437H41.0371C41.8335 54.8437 42.5973 54.5227 43.1604 53.9513C43.7235 53.3799 44.0399 52.6049 44.0399 51.7968C44.0399 50.9887 43.7235 50.2137 43.1604 49.6423C42.5973 49.0709 41.8335 48.7499 41.0371 48.7499ZM41.0371 52.8124H40.0362V50.7812H41.0371C41.3026 50.7812 41.5572 50.8882 41.7449 51.0787C41.9326 51.2691 42.038 51.5275 42.038 51.7968C42.038 52.0662 41.9326 52.3245 41.7449 52.515C41.5572 52.7054 41.3026 52.8124 41.0371 52.8124Z" fill="white"/>
<path d="M33.0299 48.7499H31.0281C30.7627 48.7499 30.5081 48.8569 30.3204 49.0474C30.1327 49.2379 30.0272 49.4962 30.0272 49.7656V57.8906C30.0272 58.1599 30.1327 58.4183 30.3204 58.6087C30.5081 58.7992 30.7627 58.9062 31.0281 58.9062C31.2936 58.9062 31.5482 58.7992 31.7359 58.6087C31.9236 58.4183 32.029 58.1599 32.029 57.8906V54.8437H33.0299C33.8263 54.8437 34.5901 54.5227 35.1532 53.9513C35.7163 53.3799 36.0327 52.6049 36.0327 51.7968C36.0327 50.9887 35.7163 50.2137 35.1532 49.6423C34.5901 49.0709 33.8263 48.7499 33.0299 48.7499ZM33.0299 52.8124H32.029V50.7812H33.0299C33.2954 50.7812 33.55 50.8882 33.7377 51.0787C33.9254 51.2691 34.0308 51.5275 34.0308 51.7968C34.0308 52.0662 33.9254 52.3245 33.7377 52.515C33.55 52.7054 33.2954 52.8124 33.0299 52.8124Z" fill="white"/>
<path d="M28.0243 57.8689C28.0243 57.8481 28.0229 57.8274 28.0212 57.8065C28.02 57.7916 28.0184 57.777 28.0165 57.7624C28.0143 57.7452 28.0118 57.7279 28.0088 57.7106C28.0058 57.6934 28.0017 57.6741 27.9974 57.656C27.9943 57.6433 27.991 57.6295 27.9874 57.6162C27.9815 57.595 27.9749 57.5741 27.9676 57.5535C27.9655 57.5471 27.964 57.5408 27.9616 57.5343L24.9589 49.4093C24.8873 49.2158 24.7593 49.049 24.5918 48.9313C24.4244 48.8136 24.2255 48.7505 24.0218 48.7505C23.8181 48.7505 23.6192 48.8136 23.4518 48.9313C23.2843 49.049 23.1563 49.2158 23.0847 49.4093L20.082 57.5343C20.034 57.6596 20.0109 57.7932 20.0142 57.9276C20.0175 58.062 20.047 58.1944 20.1011 58.3171C20.1552 58.4398 20.2327 58.5503 20.3293 58.6424C20.4258 58.7345 20.5393 58.8062 20.6634 58.8534C20.7874 58.9006 20.9194 58.9223 21.0518 58.9174C21.1842 58.9124 21.3142 58.8808 21.4345 58.8245C21.5547 58.7681 21.6628 58.6881 21.7523 58.5891C21.8419 58.49 21.9112 58.3739 21.9562 58.2475L22.4634 56.8753H25.5802L26.0874 58.2475C26.0885 58.2506 26.0903 58.2533 26.0915 58.2564C26.1084 58.3014 26.1285 58.345 26.1516 58.387C26.1551 58.3932 26.159 58.3991 26.1625 58.4053C26.1829 58.4405 26.2055 58.4744 26.23 58.5069C26.2356 58.5142 26.2406 58.5219 26.2463 58.529C26.2732 58.5625 26.3022 58.5943 26.3331 58.6242C26.3415 58.6323 26.35 58.6399 26.3582 58.6477C26.3887 58.6756 26.4209 58.7017 26.4546 58.7256C26.457 58.7273 26.4591 58.7293 26.4616 58.7309C26.499 58.7563 26.5379 58.7791 26.5782 58.7992L26.6011 58.8104C26.6824 58.849 26.7685 58.8762 26.857 58.8913C26.8683 58.8932 26.8794 58.895 26.8906 58.8965C26.9318 58.9022 26.9732 58.9054 27.0148 58.906C27.0179 58.906 27.021 58.9068 27.0241 58.9068C27.0565 58.9068 27.0891 58.9047 27.1217 58.9014C27.1304 58.9007 27.1387 58.899 27.1468 58.898C27.1688 58.8952 27.1908 58.8922 27.2127 58.8879C27.2272 58.8849 27.2415 58.8814 27.2557 58.8778C27.27 58.8743 27.2864 58.8705 27.3016 58.8659C27.319 58.8608 27.3361 58.855 27.3531 58.849C27.3603 58.8463 27.3676 58.8446 27.3748 58.8418C27.3793 58.8401 27.3835 58.8377 27.3881 58.8359C27.4084 58.8279 27.4281 58.819 27.4479 58.8097C27.4593 58.8042 27.4707 58.7989 27.4818 58.793C27.4984 58.7844 27.5146 58.775 27.5307 58.7653C27.544 58.7573 27.5573 58.7495 27.57 58.7411C27.5828 58.7327 27.595 58.7235 27.6075 58.7143C27.6222 58.7036 27.6367 58.693 27.6507 58.6817C27.6608 58.6733 27.6705 58.6645 27.6804 58.6563C27.695 58.6436 27.7096 58.6309 27.7235 58.6166C27.7325 58.6075 27.741 58.598 27.7498 58.5886C27.7629 58.5745 27.7761 58.5604 27.7883 58.5456C27.7976 58.5344 27.8061 58.5229 27.8149 58.5113C27.8254 58.4975 27.8359 58.4839 27.8456 58.4695C27.8554 58.4552 27.864 58.4409 27.873 58.4263C27.8807 58.4136 27.8886 58.4009 27.8956 58.3882C27.9049 58.3713 27.9133 58.354 27.9216 58.3366C27.9272 58.3251 27.9331 58.3135 27.9382 58.3017C27.9461 58.2836 27.9531 58.265 27.9599 58.2464C27.9644 58.2337 27.9691 58.2221 27.9731 58.2097C27.9789 58.1922 27.9838 58.1743 27.9885 58.1562C27.9924 58.1418 27.9964 58.1272 27.9997 58.1123C28.0029 58.0974 28.0058 58.0808 28.0084 58.0649C28.0115 58.0469 28.0145 58.0289 28.0167 58.0106C28.0182 57.9973 28.0192 57.9837 28.0203 57.9702C28.0219 57.9492 28.023 57.9282 28.0234 57.9068C28.0234 57.9013 28.0242 57.8961 28.0242 57.8908C28.0254 57.8835 28.0244 57.8763 28.0243 57.8689ZM23.2141 54.844L24.0218 52.6584L24.8295 54.844H23.2141Z" fill="white"/>
</svg>
