<svg width="65" height="63" viewBox="0 0 65 63" fill="none" xmlns="http://www.w3.org/2000/svg">
<path d="M57.6614 20.5038H27.6023C26.6007 20.5036 25.6437 20.083 24.9587 19.3416L21.0846 15.1506C20.3983 14.4085 19.4399 13.988 18.4369 13.9892H5.81786C3.81593 13.9892 2.19299 15.636 2.19299 17.6674V58.6887C2.19299 60.7224 3.81765 62.3709 5.82183 62.3709H57.6544C59.6586 62.3709 61.2833 60.7224 61.2833 58.6887V24.1821C61.2833 22.1518 59.6622 20.5055 57.6614 20.5038Z" fill="#58B3FF"/>
<path d="M10.8693 0.628906H54.9226V40.653H10.8693V0.628906Z" fill="#BDBDBD"/>
<path d="M8.55688 4.34515H51.2688V43.0089H8.55688V4.34515Z" fill="#EEEEEE"/>
<path d="M13.3865 9.26166H46.4408V11.0215H13.3865V9.26166Z" fill="#BDBDBD"/>
<path d="M13.3865 14.8519H46.4408V16.6117H13.3865V14.8519Z" fill="#BDBDBD"/>
<path d="M13.3865 20.4421H46.4408V22.2019H13.3865V20.4421Z" fill="#BDBDBD"/>
<path d="M60.435 26.4048H27.5985C26.5994 26.4048 25.6446 26.8232 24.9595 27.5613L21.0839 31.7365C20.3989 32.4745 19.4441 32.893 18.4449 32.893H3.625C1.62307 32.8931 0.00013256 34.5398 0 36.5712C0 36.683 0.0050373 36.7946 0.0149793 36.9058L1.88991 59.0225C2.06039 60.9187 3.62738 62.3702 5.50391 62.3702H57.9709C59.8476 62.3702 61.4147 60.9183 61.5849 59.0218L64.0426 30.4183C64.2251 28.3954 62.7569 26.6053 60.7633 26.4201C60.6541 26.41 60.5446 26.4049 60.435 26.4048Z" fill="#BADDFF"/>
</svg>
